<svg width="25" height="24" viewBox="0 0 25 24" fill="none" xmlns="http://www.w3.org/2000/svg">
<path d="M17.6667 2.75H7.66667C5.31946 2.75 3.41667 4.65279 3.41667 7V17C3.41667 19.3472 5.31946 21.25 7.66667 21.25H17.6667C20.0139 21.25 21.9167 19.3472 21.9167 17V7C21.9167 4.65279 20.0139 2.75 17.6667 2.75Z" stroke="black" stroke-width="1.5"/>
<mask id="mask0_5_168" style="mask-type:alpha" maskUnits="userSpaceOnUse" x="2" y="12" width="21" height="10">
<path fill-rule="evenodd" clip-rule="evenodd" d="M10.2916 13.5C10.0712 12.6184 9.27913 12 8.37044 12H6.66659C4.73333 12 3.76669 12 3.17546 12.6214C2.58422 13.2429 2.63005 14.162 2.7217 16.0003C2.83105 18.1936 3.15736 19.5618 4.13105 20.5355C5.59552 22 7.95254 22 12.6666 22C17.3807 22 19.7377 22 21.2021 20.5355C22.1758 19.5618 22.5021 18.1936 22.6115 16.0003C22.7032 14.162 22.749 13.2429 22.1577 12.6214C21.5665 12 20.5999 12 18.6666 12H16.9628C16.0541 12 15.262 12.6184 15.0416 13.5C14.8212 14.3816 14.0292 15 13.1205 15H12.2128C11.3041 15 10.512 14.3816 10.2916 13.5Z" fill="white"/>
</mask>
<g mask="url(#mask0_5_168)">
<path d="M22.6112 16.0003L21.1131 15.9256L22.6112 16.0003ZM3.17522 12.6214L2.08847 11.5875L3.17522 12.6214ZM6.66635 13.5H8.3702V10.5H6.66635V13.5ZM5.19147 19.4749C4.64574 18.9291 4.32684 18.0765 4.2196 15.9256L1.22333 16.075C1.33479 18.3107 1.6685 20.1945 3.07015 21.5962L5.19147 19.4749ZM12.6663 20.5C10.2669 20.5 8.61825 20.4968 7.37986 20.3303C6.18462 20.1696 5.59855 19.882 5.19147 19.4749L3.07015 21.5962C4.12754 22.6536 5.45221 23.0981 6.98012 23.3036C8.46487 23.5032 10.3517 23.5 12.6663 23.5V20.5ZM20.1412 19.4749C19.7341 19.882 19.148 20.1696 17.9528 20.3303C16.7144 20.4968 15.0657 20.5 12.6663 20.5V23.5C14.9809 23.5 16.8678 23.5032 18.3525 23.3036C19.8805 23.0981 21.2051 22.6536 22.2625 21.5962L20.1412 19.4749ZM21.1131 15.9256C21.0058 18.0765 20.6869 18.9291 20.1412 19.4749L22.2625 21.5962C23.6642 20.1945 23.9979 18.3107 24.1093 16.075L21.1131 15.9256ZM16.9625 13.5H18.6663V10.5H16.9625V13.5ZM13.1202 13.5H12.2125V16.5H13.1202V13.5ZM12.2125 13.5C11.9921 13.5 11.8 13.35 11.7466 13.1362L8.83615 13.8638C9.22348 15.4131 10.6155 16.5 12.2125 16.5V13.5ZM13.5861 13.1362C13.5327 13.35 13.3406 13.5 13.1202 13.5V16.5C14.7172 16.5 16.1092 15.4131 16.4966 13.8638L13.5861 13.1362ZM16.9625 10.5C15.3655 10.5 13.9735 11.5869 13.5861 13.1362L16.4966 13.8638C16.55 13.65 16.7421 13.5 16.9625 13.5V10.5ZM8.3702 13.5C8.59059 13.5 8.7827 13.65 8.83615 13.8638L11.7466 13.1362C11.3592 11.5869 9.96719 10.5 8.3702 10.5V13.5ZM24.1093 16.075C24.1529 15.2013 24.1974 14.3838 24.1337 13.7128C24.0645 12.9834 23.8538 12.2283 23.2442 11.5875L21.0707 13.6554C21.0761 13.6611 21.0801 13.6639 21.0897 13.6892C21.104 13.7263 21.1299 13.8144 21.1471 13.9963C21.1854 14.3999 21.1612 14.9611 21.1131 15.9256L24.1093 16.075ZM18.6663 13.5C19.677 13.5 20.2784 13.5034 20.708 13.5633C20.9044 13.5907 21.0012 13.6228 21.0437 13.641C21.0535 13.6452 21.0599 13.6484 21.0636 13.6504C21.0672 13.6524 21.0688 13.6535 21.0691 13.6537C21.0693 13.6538 21.069 13.6536 21.0687 13.6534C21.0684 13.6531 21.069 13.6536 21.0707 13.6554L23.2442 11.5875C22.6234 10.935 21.8548 10.6942 21.1223 10.592C20.4374 10.4966 19.5889 10.5 18.6663 10.5V13.5ZM6.66635 10.5C5.74379 10.5 4.89526 10.4966 4.21041 10.592C3.47787 10.6942 2.70926 10.935 2.08847 11.5875L4.26197 13.6554C4.26362 13.6536 4.26423 13.6531 4.26395 13.6534C4.26365 13.6536 4.26341 13.6538 4.2636 13.6537C4.26381 13.6535 4.26544 13.6524 4.26907 13.6504C4.27275 13.6484 4.27915 13.6452 4.28901 13.641C4.33148 13.6228 4.42826 13.5907 4.62463 13.5633C5.05423 13.5034 5.65565 13.5 6.66635 13.5V10.5ZM4.2196 15.9256C4.17151 14.9611 4.14724 14.3999 4.18555 13.9963C4.20281 13.8144 4.22871 13.7263 4.24292 13.6892C4.25259 13.6639 4.25654 13.6611 4.26197 13.6554L2.08847 11.5875C1.47889 12.2283 1.2682 12.9834 1.19897 13.7128C1.13529 14.3838 1.17976 15.2013 1.22333 16.075L4.2196 15.9256Z" fill="black"/>
</g>
</svg>
