<svg xmlns="http://www.w3.org/2000/svg" width="25" height="24" viewBox="0 0 25 24" fill="none">
  <path d="M15.5833 6C15.5833 7.79493 14.1282 9.25 12.3333 9.25C10.5384 9.25 9.08331 7.79493 9.08331 6C9.08331 4.20507 10.5384 2.75 12.3333 2.75C14.1282 2.75 15.5833 4.20507 15.5833 6Z" stroke="#A5A5A5" stroke-width="1.5"/>
  <path d="M18.5833 17C18.5833 18.0756 17.9742 19.1202 16.8471 19.9252C15.7215 20.7293 14.128 21.25 12.3333 21.25C10.5386 21.25 8.94512 20.7293 7.81949 19.9252C6.69242 19.1202 6.08331 18.0756 6.08331 17C6.08331 15.9244 6.69242 14.8798 7.81949 14.0748C8.94512 13.2707 10.5386 12.75 12.3333 12.75C14.128 12.75 15.7215 13.2707 16.8471 14.0748C17.9742 14.8798 18.5833 15.9244 18.5833 17Z" stroke="#A5A5A5" stroke-width="1.5"/>
</svg>