<svg width="149" height="92" viewBox="0 0 149 92" fill="none" xmlns="http://www.w3.org/2000/svg">
<g id="DATABANK">
<path d="M38.245 37.98L30.865 42H5.125L9.505 0H35.245L41.785 4.02L38.245 37.98ZM17.125 7.2L14.245 34.8H30.145L33.025 7.2H17.125Z" fill="black"/>
<path d="M66.8356 0L77.4556 42H69.1756L66.8956 32.94H51.1756L47.0956 42H38.8156L58.1956 0H66.8356ZM61.3756 10.56L54.4756 25.74H65.0956L61.4956 10.56H61.3756Z" fill="black"/>
<path d="M95.197 7.2L91.597 42H83.197L86.797 7.2H75.457L76.237 0H107.317L106.537 7.2H95.197Z" fill="black"/>
<path d="M125.39 0L136.01 42H127.73L125.45 32.94H109.73L105.65 42H97.3703L116.75 0H125.39ZM119.93 10.56L113.03 25.74H123.65L120.05 10.56H119.93Z" fill="black"/>
<path d="M32.28 67.22L26.76 70.22L26.7 70.34L31.62 73.34L30.12 87.98L22.74 92H0L4.38 50H27.12L33.66 54.02L32.28 67.22ZM10.26 73.88L9.12 84.8H22.02L23.16 73.88H10.26ZM12 57.2L11.04 66.68H23.94L24.9 57.2H12Z" fill="#214FC7"/>
<path d="M58.7224 50L69.3423 92H61.0623L58.7823 82.94H43.0623L38.9823 92H30.7023L50.0824 50H58.7224ZM53.2623 60.56L46.3624 75.74H56.9823L53.3823 60.56H53.2623Z" fill="#214FC7"/>
<path d="M81.552 64.82L78.732 92H70.332L74.712 50H82.572L97.812 77.18H97.932L100.812 50H109.212L104.832 92H96.972L81.672 64.82H81.552Z" fill="#214FC7"/>
<path d="M110.039 92L114.419 50H122.819L120.839 68.9H120.959L138.599 50H148.559L129.959 69.68L146.039 92H135.959L124.259 75.68L119.639 80.54L118.439 92H110.039Z" fill="#214FC7"/>
</g>
</svg>
