<svg width="100" height="100" viewBox="0 0 100 100" fill="none" xmlns="http://www.w3.org/2000/svg">
<g id="Profile">
<path id="Body" d="M21.7435 48.8216C22.4174 45.3557 22.7544 43.6227 23.5586 42.2712C24.6308 40.4692 26.2964 39.0962 28.2699 38.3877C29.7501 37.8563 31.5155 37.8563 35.0463 37.8563L65.4069 37.8563C68.9377 37.8563 70.7031 37.8563 72.1833 38.3877C74.1568 39.0962 75.8225 40.4692 76.8947 42.2712C77.6988 43.6227 78.0358 45.3557 78.7097 48.8216V48.8216C79.6645 53.7322 80.142 56.1876 79.6439 58.149C78.9799 60.7643 77.1816 62.9458 74.7412 64.0969C72.9109 64.9601 70.4096 64.9601 65.4069 64.9601H35.0463C30.0436 64.9601 27.5423 64.9601 25.712 64.0969C23.2716 62.9458 21.4734 60.7643 20.8093 58.149C20.3112 56.1876 20.7887 53.7322 21.7435 48.8216V48.8216Z" fill="url(#paint0_linear_184_802)"/>
<g id="Shape 1" filter="url(#filter0_b_184_802)">
<circle cx="50.6157" cy="32.4051" r="17.1106" fill="#BFB5FF" fill-opacity="0.6"/>
<circle cx="50.6157" cy="32.4051" r="16.9036" stroke="url(#paint1_linear_184_802)" stroke-width="0.41388"/>
</g>
<g id="Shape 2" filter="url(#filter1_b_184_802)">
<path d="M22.1536 71.5953C22.1536 79.3597 28.4479 85.654 36.2123 85.654L64.3298 85.654C72.0942 85.654 78.3885 79.3597 78.3885 71.5953V71.5953C78.3885 61.2427 69.9906 52.8503 59.638 52.8503C52.9578 52.8503 47.5843 52.8503 40.9041 52.8503C30.5515 52.8503 22.1536 61.2427 22.1536 71.5953V71.5953Z" fill="#BFB5FF" fill-opacity="0.6"/>
<path d="M36.2123 85.4471L64.3298 85.4471C71.9799 85.4471 78.1816 79.2454 78.1816 71.5953C78.1816 61.3571 69.8764 53.0572 59.638 53.0572L59.5989 53.0572L59.5598 53.0572L59.5207 53.0572L59.4817 53.0572L59.4427 53.0572L59.4037 53.0572L59.3648 53.0572L59.3258 53.0572L59.2869 53.0572L59.2481 53.0572L59.2092 53.0572L59.1704 53.0572L59.1317 53.0572L59.0929 53.0572L59.0542 53.0572L59.0155 53.0572L58.9768 53.0572L58.9382 53.0572L58.8996 53.0572L58.861 53.0572L58.8225 53.0572L58.7839 53.0572L58.7454 53.0572L58.707 53.0572L58.6685 53.0572L58.6301 53.0572L58.5917 53.0572L58.5533 53.0572L58.515 53.0572L58.4767 53.0572L58.4384 53.0572L58.4002 53.0572L58.3619 53.0572L58.3237 53.0572L58.2855 53.0572L58.2474 53.0572L58.2093 53.0572L58.1712 53.0572L58.1331 53.0572L58.095 53.0572L58.057 53.0572L58.019 53.0572L57.981 53.0572L57.9431 53.0572L57.9051 53.0572L57.8672 53.0572L57.8294 53.0572L57.7915 53.0572L57.7537 53.0572L57.7159 53.0572L57.6781 53.0572L57.6403 53.0572L57.6026 53.0572L57.5649 53.0572L57.5272 53.0572L57.4895 53.0572L57.4519 53.0572L57.4143 53.0572L57.3767 53.0572L57.3391 53.0572L57.3016 53.0572L57.2641 53.0572L57.2266 53.0572L57.1891 53.0572L57.1516 53.0572L57.1142 53.0572L57.0768 53.0572L57.0394 53.0572L57.002 53.0572L56.9647 53.0572L56.9274 53.0572L56.8901 53.0572L56.8528 53.0572L56.8155 53.0572L56.7783 53.0572L56.7411 53.0572L56.7039 53.0572L56.6667 53.0572L56.6295 53.0572L56.5924 53.0572L56.5553 53.0572L56.5182 53.0572L56.4811 53.0572L56.4441 53.0572L56.407 53.0572L56.37 53.0572L56.333 53.0572L56.2961 53.0572L56.2591 53.0572L56.2222 53.0572L56.1853 53.0572L56.1484 53.0572L56.1115 53.0572L56.0746 53.0572L56.0378 53.0572L56.001 53.0572L55.9642 53.0572L55.9274 53.0572L55.8906 53.0572L55.8539 53.0572L55.8172 53.0572L55.7805 53.0572L55.7438 53.0572L55.7071 53.0572L55.6704 53.0572L55.6338 53.0572L55.5972 53.0572L55.5606 53.0572L55.524 53.0572L55.4874 53.0572L55.4509 53.0572L55.4144 53.0572L55.3778 53.0572L55.3413 53.0572L55.3049 53.0572L55.2684 53.0572L55.2319 53.0572L55.1955 53.0572L55.1591 53.0572L55.1227 53.0572L55.0863 53.0572L55.0499 53.0572L55.0136 53.0572L54.9772 53.0572L54.9409 53.0572L54.9046 53.0572L54.8683 53.0572L54.832 53.0572L54.7958 53.0572L54.7595 53.0572L54.7233 53.0572L54.6871 53.0572L54.6509 53.0572L54.6147 53.0572L54.5785 53.0572L54.5423 53.0572L54.5062 53.0572L54.47 53.0572L54.4339 53.0572L54.3978 53.0572L54.3617 53.0572L54.3256 53.0572L54.2896 53.0572L54.2535 53.0572L54.2175 53.0572L54.1815 53.0572L54.1454 53.0572L54.1094 53.0572L54.0735 53.0572L54.0375 53.0572L54.0015 53.0572L53.9656 53.0572L53.9296 53.0572L53.8937 53.0572L53.8578 53.0572L53.8219 53.0572L53.786 53.0572L53.7501 53.0572L53.7142 53.0572L53.6784 53.0572L53.6425 53.0572L53.6067 53.0572L53.5709 53.0572L53.5351 53.0572L53.4993 53.0572L53.4635 53.0572L53.4277 53.0572L53.3919 53.0572L53.3562 53.0572L53.3204 53.0572L53.2847 53.0572L53.2489 53.0572L53.2132 53.0572L53.1775 53.0572L53.1418 53.0572L53.1061 53.0572L53.0704 53.0572L53.0347 53.0572L52.9991 53.0572L52.9634 53.0572L52.9278 53.0572L52.8921 53.0572L52.8565 53.0572L52.8209 53.0572L52.7853 53.0572L52.7497 53.0572L52.7141 53.0572L52.6785 53.0572L52.6429 53.0572L52.6073 53.0572L52.5718 53.0572L52.5362 53.0572L52.5007 53.0572L52.4651 53.0572L52.4296 53.0572L52.3941 53.0572L52.3585 53.0572L52.323 53.0572L52.2875 53.0572L52.252 53.0572L52.2165 53.0572L52.181 53.0572L52.1456 53.0572L52.1101 53.0572L52.0746 53.0572L52.0392 53.0572L52.0037 53.0572L51.9683 53.0572L51.9328 53.0572L51.8974 53.0572L51.8619 53.0572L51.8265 53.0572L51.7911 53.0572L51.7557 53.0572L51.7202 53.0572L51.6848 53.0572L51.6494 53.0572L51.614 53.0572L51.5786 53.0572L51.5432 53.0572L51.5079 53.0572L51.4725 53.0572L51.4371 53.0572L51.4017 53.0572L51.3663 53.0572L51.331 53.0572L51.2956 53.0572L51.2603 53.0572L51.2249 53.0572L51.1895 53.0572L51.1542 53.0572L51.1188 53.0572L51.0835 53.0572L51.0482 53.0572L51.0128 53.0572L50.9775 53.0572L50.9421 53.0572L50.9068 53.0572L50.8715 53.0572L50.8361 53.0572L50.8008 53.0572L50.7655 53.0572L50.7302 53.0572L50.6948 53.0572L50.6595 53.0572L50.6242 53.0572L50.5889 53.0572L50.5536 53.0572L50.5182 53.0572L50.4829 53.0572L50.4476 53.0572L50.4123 53.0572L50.377 53.0572L50.3417 53.0572L50.3064 53.0572L50.271 53.0572L50.2357 53.0572L50.2004 53.0572L50.1651 53.0572L50.1298 53.0572L50.0945 53.0572L50.0592 53.0572L50.0238 53.0572L49.9885 53.0572L49.9532 53.0572L49.9179 53.0572L49.8826 53.0572L49.8472 53.0572L49.8119 53.0572L49.7766 53.0572L49.7413 53.0572L49.7059 53.0572L49.6706 53.0572L49.6353 53.0572L49.6 53.0572L49.5646 53.0572L49.5293 53.0572L49.4939 53.0572L49.4586 53.0572L49.4232 53.0572L49.3879 53.0572L49.3525 53.0572L49.3172 53.0572L49.2818 53.0572L49.2465 53.0572L49.2111 53.0572L49.1757 53.0572L49.1404 53.0572L49.105 53.0572L49.0696 53.0572L49.0342 53.0572L48.9988 53.0572L48.9635 53.0572L48.9281 53.0572L48.8927 53.0572L48.8573 53.0572L48.8218 53.0572L48.7864 53.0572L48.751 53.0572L48.7156 53.0572L48.6802 53.0572L48.6447 53.0572L48.6093 53.0572L48.5738 53.0572L48.5384 53.0572L48.5029 53.0572L48.4675 53.0572L48.432 53.0572L48.3965 53.0572L48.361 53.0572L48.3256 53.0572L48.2901 53.0572L48.2546 53.0572L48.2191 53.0572L48.1835 53.0572L48.148 53.0572L48.1125 53.0572L48.077 53.0572L48.0414 53.0572L48.0059 53.0572L47.9703 53.0572L47.9347 53.0572L47.8992 53.0572L47.8636 53.0572L47.828 53.0572L47.7924 53.0572L47.7568 53.0572L47.7212 53.0572L47.6856 53.0572L47.6499 53.0572L47.6143 53.0572L47.5787 53.0572L47.543 53.0572L47.5073 53.0572L47.4717 53.0572L47.436 53.0572L47.4003 53.0572L47.3646 53.0572L47.3289 53.0572L47.2932 53.0572L47.2574 53.0572L47.2217 53.0572L47.1859 53.0572L47.1502 53.0572L47.1144 53.0572L47.0786 53.0572L47.0428 53.0572L47.007 53.0572L46.9712 53.0572L46.9354 53.0572L46.8996 53.0572L46.8637 53.0572L46.8278 53.0572L46.792 53.0572L46.7561 53.0572L46.7202 53.0572L46.6843 53.0572L46.6484 53.0572L46.6125 53.0572L46.5765 53.0572L46.5406 53.0572L46.5046 53.0572L46.4686 53.0572L46.4326 53.0572L46.3966 53.0572L46.3606 53.0572L46.3246 53.0572L46.2886 53.0572L46.2525 53.0572L46.2164 53.0572L46.1804 53.0572L46.1443 53.0572L46.1082 53.0572L46.072 53.0572L46.0359 53.0572L45.9998 53.0572L45.9636 53.0572L45.9274 53.0572L45.8912 53.0572L45.855 53.0572L45.8188 53.0572L45.7826 53.0572L45.7463 53.0572L45.7101 53.0572L45.6738 53.0572L45.6375 53.0572L45.6012 53.0572L45.5649 53.0572L45.5285 53.0572L45.4922 53.0572L45.4558 53.0572L45.4194 53.0572L45.383 53.0572L45.3466 53.0572L45.3102 53.0572L45.2737 53.0572L45.2372 53.0572L45.2008 53.0572L45.1643 53.0572L45.1277 53.0572L45.0912 53.0572L45.0547 53.0572L45.0181 53.0572L44.9815 53.0572L44.9449 53.0572L44.9083 53.0572L44.8716 53.0572L44.835 53.0572L44.7983 53.0572L44.7616 53.0572L44.7249 53.0572L44.6882 53.0572L44.6514 53.0572L44.6147 53.0572L44.5779 53.0572L44.5411 53.0572L44.5043 53.0572L44.4674 53.0572L44.4306 53.0572L44.3937 53.0572L44.3568 53.0572L44.3199 53.0572L44.283 53.0572L44.246 53.0572L44.209 53.0572L44.1721 53.0572L44.135 53.0572L44.098 53.0572L44.061 53.0572L44.0239 53.0572L43.9868 53.0572L43.9497 53.0572L43.9125 53.0572L43.8754 53.0572L43.8382 53.0572L43.801 53.0572L43.7638 53.0572L43.7266 53.0572L43.6893 53.0572L43.652 53.0572L43.6147 53.0572L43.5774 53.0572L43.5401 53.0572L43.5027 53.0572L43.4653 53.0572L43.4279 53.0572L43.3905 53.0572L43.353 53.0572L43.3155 53.0572L43.278 53.0572L43.2405 53.0572L43.203 53.0572L43.1654 53.0572L43.1278 53.0572L43.0902 53.0572L43.0525 53.0572L43.0149 53.0572L42.9772 53.0572L42.9395 53.0572L42.9017 53.0572L42.864 53.0572L42.8262 53.0572L42.7884 53.0572L42.7506 53.0572L42.7127 53.0572L42.6748 53.0572L42.6369 53.0572L42.599 53.0572L42.5611 53.0572L42.5231 53.0572L42.4851 53.0572L42.4471 53.0572L42.409 53.0572L42.3709 53.0572L42.3328 53.0572L42.2947 53.0572L42.2565 53.0572L42.2184 53.0572L42.1802 53.0572L42.1419 53.0572L42.1037 53.0572L42.0654 53.0572L42.0271 53.0572L41.9887 53.0572L41.9504 53.0572L41.912 53.0572L41.8736 53.0572L41.8351 53.0572L41.7967 53.0572L41.7582 53.0572L41.7196 53.0572L41.6811 53.0572L41.6425 53.0572L41.6039 53.0572L41.5653 53.0572L41.5266 53.0572L41.4879 53.0572L41.4492 53.0572L41.4104 53.0572L41.3716 53.0572L41.3328 53.0572L41.294 53.0572L41.2551 53.0572L41.2163 53.0572L41.1773 53.0572L41.1384 53.0572L41.0994 53.0572L41.0604 53.0572L41.0214 53.0572L40.9823 53.0572L40.9432 53.0572L40.9041 53.0572C30.6657 53.0572 22.3605 61.3571 22.3605 71.5953C22.3605 79.2454 28.5622 85.4471 36.2123 85.4471Z" stroke="url(#paint2_linear_184_802)" stroke-width="0.41388"/>
</g>
</g>
<defs>
<filter id="filter0_b_184_802" x="24.9498" y="6.73917" width="51.3318" height="51.3317" filterUnits="userSpaceOnUse" color-interpolation-filters="sRGB">
<feFlood flood-opacity="0" result="BackgroundImageFix"/>
<feGaussianBlur in="BackgroundImageFix" stdDeviation="4.27765"/>
<feComposite in2="SourceAlpha" operator="in" result="effect1_backgroundBlur_184_802"/>
<feBlend mode="normal" in="SourceGraphic" in2="effect1_backgroundBlur_184_802" result="shape"/>
</filter>
<filter id="filter1_b_184_802" x="12.7811" y="43.4778" width="74.9798" height="51.5487" filterUnits="userSpaceOnUse" color-interpolation-filters="sRGB">
<feFlood flood-opacity="0" result="BackgroundImageFix"/>
<feGaussianBlur in="BackgroundImageFix" stdDeviation="4.68624"/>
<feComposite in2="SourceAlpha" operator="in" result="effect1_backgroundBlur_184_802"/>
<feBlend mode="normal" in="SourceGraphic" in2="effect1_backgroundBlur_184_802" result="shape"/>
</filter>
<linearGradient id="paint0_linear_184_802" x1="36.8484" y1="43.7853" x2="69.8583" y2="70.2728" gradientUnits="userSpaceOnUse">
<stop stop-color="#917FFB"/>
<stop offset="1" stop-color="#3F2DAF"/>
</linearGradient>
<linearGradient id="paint1_linear_184_802" x1="33.5051" y1="21.7109" x2="49.9473" y2="48.7152" gradientUnits="userSpaceOnUse">
<stop stop-color="white"/>
<stop offset="0.99715" stop-color="white" stop-opacity="0"/>
</linearGradient>
<linearGradient id="paint2_linear_184_802" x1="24.79" y1="55.7669" x2="80.2404" y2="81.3952" gradientUnits="userSpaceOnUse">
<stop stop-color="white"/>
<stop offset="1" stop-color="white" stop-opacity="0"/>
</linearGradient>
</defs>
</svg>
