<svg width="40" height="40" viewBox="0 0 40 40" fill="none" xmlns="http://www.w3.org/2000/svg">
<g id="Group 6">
<circle id="Ellipse 1" cx="20" cy="20" r="20" fill="#214FC7"/>
<circle id="Ellipse 2" cx="20" cy="20" r="13" fill="white"/>
<path id="&#226;&#130;&#169;" d="M16.2188 26L14.9844 21.0469H13.2969V19.625H14.6328L13.4062 14.6875H15.3281L16.4297 19.625H18.1875L19.375 14.6875H21.2344L22.4219 19.625H24.1953L25.2969 14.6875H27.2031L25.9766 19.625H27.3125V21.0469H25.625L24.3906 26H22.3906L21.1719 21.0469H19.4375L18.2188 26H16.2188ZM16.7422 21.0469L17.2188 23.1875H17.3281L17.8438 21.0469H16.7422ZM19.7812 19.625H20.8281L20.3438 17.6562H20.2656L19.7812 19.625ZM22.7656 21.0469L23.2812 23.2031H23.3906L23.875 21.0469H22.7656Z" fill="#214FC7"/>
</g>
</svg>
